<svg id="visual" viewBox="0 0 900 600" width="900" height="600" xmlns="http://www.w3.org/2000/svg" xmlns:xlink="http://www.w3.org/1999/xlink" version="1.1"><rect x="0" y="0" width="900" height="600" fill="#003056"></rect><path d="M0 491L7.8 490.8C15.7 490.7 31.3 490.3 47.2 492.5C63 494.7 79 499.3 94.8 504.5C110.7 509.7 126.3 515.3 142 514.3C157.7 513.3 173.3 505.7 189.2 504.8C205 504 221 510 236.8 510.2C252.7 510.3 268.3 504.7 284.2 504.7C300 504.7 316 510.3 331.8 513.3C347.7 516.3 363.3 516.7 379 513.2C394.7 509.7 410.3 502.3 426.2 500.3C442 498.3 458 501.7 473.8 503.2C489.7 504.7 505.3 504.3 521 506.5C536.7 508.7 552.3 513.3 568.2 516.2C584 519 600 520 615.8 516C631.7 512 647.3 503 663.2 503.8C679 504.7 695 515.3 710.8 517.5C726.7 519.7 742.3 513.3 758 511C773.7 508.7 789.3 510.3 805.2 509.7C821 509 837 506 852.8 502C868.7 498 884.3 493 892.2 490.5L900 488L900 601L892.2 601C884.3 601 868.7 601 852.8 601C837 601 821 601 805.2 601C789.3 601 773.7 601 758 601C742.3 601 726.7 601 710.8 601C695 601 679 601 663.2 601C647.3 601 631.7 601 615.8 601C600 601 584 601 568.2 601C552.3 601 536.7 601 521 601C505.3 601 489.7 601 473.8 601C458 601 442 601 426.2 601C410.3 601 394.7 601 379 601C363.3 601 347.7 601 331.8 601C316 601 300 601 284.2 601C268.3 601 252.7 601 236.8 601C221 601 205 601 189.2 601C173.3 601 157.7 601 142 601C126.3 601 110.7 601 94.8 601C79 601 63 601 47.2 601C31.3 601 15.7 601 7.8 601L0 601Z" fill="#fa7268"></path><path d="M0 535L7.8 530.8C15.7 526.7 31.3 518.3 47.2 516.5C63 514.7 79 519.3 94.8 520.3C110.7 521.3 126.3 518.7 142 515C157.7 511.3 173.3 506.7 189.2 506.7C205 506.7 221 511.3 236.8 517.5C252.7 523.7 268.3 531.3 284.2 531.8C300 532.3 316 525.7 331.8 521.5C347.7 517.3 363.3 515.7 379 518.5C394.7 521.3 410.3 528.7 426.2 529.5C442 530.3 458 524.7 473.8 522.8C489.7 521 505.3 523 521 525.2C536.7 527.3 552.3 529.7 568.2 527.5C584 525.3 600 518.7 615.8 514C631.7 509.3 647.3 506.7 663.2 506.7C679 506.7 695 509.3 710.8 513.5C726.7 517.7 742.3 523.3 758 527C773.7 530.7 789.3 532.3 805.2 531.5C821 530.7 837 527.3 852.8 524.8C868.7 522.3 884.3 520.7 892.2 519.8L900 519L900 601L892.2 601C884.3 601 868.7 601 852.8 601C837 601 821 601 805.2 601C789.3 601 773.7 601 758 601C742.3 601 726.7 601 710.8 601C695 601 679 601 663.2 601C647.3 601 631.7 601 615.8 601C600 601 584 601 568.2 601C552.3 601 536.7 601 521 601C505.3 601 489.7 601 473.8 601C458 601 442 601 426.2 601C410.3 601 394.7 601 379 601C363.3 601 347.7 601 331.8 601C316 601 300 601 284.2 601C268.3 601 252.7 601 236.8 601C221 601 205 601 189.2 601C173.3 601 157.7 601 142 601C126.3 601 110.7 601 94.8 601C79 601 63 601 47.2 601C31.3 601 15.7 601 7.8 601L0 601Z" fill="#f36567"></path><path d="M0 519L7.8 519C15.7 519 31.3 519 47.2 523.2C63 527.3 79 535.7 94.8 536.8C110.7 538 126.3 532 142 529.8C157.7 527.7 173.3 529.3 189.2 527.7C205 526 221 521 236.8 521.2C252.7 521.3 268.3 526.7 284.2 530C300 533.3 316 534.7 331.8 534.5C347.7 534.3 363.3 532.7 379 531.3C394.7 530 410.3 529 426.2 530.3C442 531.7 458 535.3 473.8 534.8C489.7 534.3 505.3 529.7 521 531.2C536.7 532.7 552.3 540.3 568.2 540C584 539.7 600 531.3 615.8 527.8C631.7 524.3 647.3 525.7 663.2 528C679 530.3 695 533.7 710.8 532.3C726.7 531 742.3 525 758 522C773.7 519 789.3 519 805.2 522C821 525 837 531 852.8 532.5C868.7 534 884.3 531 892.2 529.5L900 528L900 601L892.2 601C884.3 601 868.7 601 852.8 601C837 601 821 601 805.2 601C789.3 601 773.7 601 758 601C742.3 601 726.7 601 710.8 601C695 601 679 601 663.2 601C647.3 601 631.7 601 615.8 601C600 601 584 601 568.2 601C552.3 601 536.7 601 521 601C505.3 601 489.7 601 473.8 601C458 601 442 601 426.2 601C410.3 601 394.7 601 379 601C363.3 601 347.7 601 331.8 601C316 601 300 601 284.2 601C268.3 601 252.7 601 236.8 601C221 601 205 601 189.2 601C173.3 601 157.7 601 142 601C126.3 601 110.7 601 94.8 601C79 601 63 601 47.2 601C31.3 601 15.7 601 7.8 601L0 601Z" fill="#eb5967"></path><path d="M0 546L7.8 543.7C15.7 541.3 31.3 536.7 47.2 534.3C63 532 79 532 94.8 534.3C110.7 536.7 126.3 541.3 142 545.3C157.7 549.3 173.3 552.7 189.2 550.7C205 548.7 221 541.3 236.8 538.5C252.7 535.7 268.3 537.3 284.2 541.5C300 545.7 316 552.3 331.8 551.5C347.7 550.7 363.3 542.3 379 541C394.7 539.7 410.3 545.3 426.2 545.2C442 545 458 539 473.8 538C489.7 537 505.3 541 521 545.2C536.7 549.3 552.3 553.7 568.2 553.7C584 553.7 600 549.3 615.8 549C631.7 548.7 647.3 552.3 663.2 551.2C679 550 695 544 710.8 540C726.7 536 742.3 534 758 535C773.7 536 789.3 540 805.2 544.2C821 548.3 837 552.7 852.8 550.5C868.7 548.3 884.3 539.7 892.2 535.3L900 531L900 601L892.2 601C884.3 601 868.7 601 852.8 601C837 601 821 601 805.2 601C789.3 601 773.7 601 758 601C742.3 601 726.7 601 710.8 601C695 601 679 601 663.2 601C647.3 601 631.7 601 615.8 601C600 601 584 601 568.2 601C552.3 601 536.7 601 521 601C505.3 601 489.7 601 473.8 601C458 601 442 601 426.2 601C410.3 601 394.7 601 379 601C363.3 601 347.7 601 331.8 601C316 601 300 601 284.2 601C268.3 601 252.7 601 236.8 601C221 601 205 601 189.2 601C173.3 601 157.7 601 142 601C126.3 601 110.7 601 94.8 601C79 601 63 601 47.2 601C31.3 601 15.7 601 7.8 601L0 601Z" fill="#e34c67"></path><path d="M0 547L7.8 547.8C15.7 548.7 31.3 550.3 47.2 553.8C63 557.3 79 562.7 94.8 565.3C110.7 568 126.3 568 142 564.8C157.7 561.7 173.3 555.3 189.2 553.7C205 552 221 555 236.8 558.3C252.7 561.7 268.3 565.3 284.2 563.3C300 561.3 316 553.7 331.8 553.7C347.7 553.7 363.3 561.3 379 564.3C394.7 567.3 410.3 565.7 426.2 565C442 564.3 458 564.7 473.8 564C489.7 563.3 505.3 561.7 521 559.8C536.7 558 552.3 556 568.2 556.3C584 556.7 600 559.3 615.8 562.3C631.7 565.3 647.3 568.7 663.2 567.7C679 566.7 695 561.3 710.8 560.8C726.7 560.3 742.3 564.7 758 564C773.7 563.3 789.3 557.7 805.2 557.7C821 557.7 837 563.3 852.8 563.5C868.7 563.7 884.3 558.3 892.2 555.7L900 553L900 601L892.2 601C884.3 601 868.7 601 852.8 601C837 601 821 601 805.2 601C789.3 601 773.7 601 758 601C742.3 601 726.7 601 710.8 601C695 601 679 601 663.2 601C647.3 601 631.7 601 615.8 601C600 601 584 601 568.2 601C552.3 601 536.7 601 521 601C505.3 601 489.7 601 473.8 601C458 601 442 601 426.2 601C410.3 601 394.7 601 379 601C363.3 601 347.7 601 331.8 601C316 601 300 601 284.2 601C268.3 601 252.7 601 236.8 601C221 601 205 601 189.2 601C173.3 601 157.7 601 142 601C126.3 601 110.7 601 94.8 601C79 601 63 601 47.2 601C31.3 601 15.7 601 7.8 601L0 601Z" fill="#da3f67"></path><path d="M0 582L7.8 581.2C15.7 580.3 31.3 578.7 47.2 577C63 575.3 79 573.7 94.8 570.8C110.7 568 126.3 564 142 564.7C157.7 565.3 173.3 570.7 189.2 573.8C205 577 221 578 236.8 575.8C252.7 573.7 268.3 568.3 284.2 567.3C300 566.3 316 569.7 331.8 572.3C347.7 575 363.3 577 379 577.8C394.7 578.7 410.3 578.3 426.2 578.7C442 579 458 580 473.8 578.8C489.7 577.7 505.3 574.3 521 572C536.7 569.7 552.3 568.3 568.2 567C584 565.7 600 564.3 615.8 565.3C631.7 566.3 647.3 569.7 663.2 572.3C679 575 695 577 710.8 578.2C726.7 579.3 742.3 579.7 758 579C773.7 578.3 789.3 576.7 805.2 573.5C821 570.3 837 565.7 852.8 565.8C868.7 566 884.3 571 892.2 573.5L900 576L900 601L892.2 601C884.3 601 868.7 601 852.8 601C837 601 821 601 805.2 601C789.3 601 773.7 601 758 601C742.3 601 726.7 601 710.8 601C695 601 679 601 663.2 601C647.3 601 631.7 601 615.8 601C600 601 584 601 568.2 601C552.3 601 536.7 601 521 601C505.3 601 489.7 601 473.8 601C458 601 442 601 426.2 601C410.3 601 394.7 601 379 601C363.3 601 347.7 601 331.8 601C316 601 300 601 284.2 601C268.3 601 252.7 601 236.8 601C221 601 205 601 189.2 601C173.3 601 157.7 601 142 601C126.3 601 110.7 601 94.8 601C79 601 63 601 47.2 601C31.3 601 15.7 601 7.8 601L0 601Z" fill="#d03267"></path><path d="M0 578L7.8 579.2C15.7 580.3 31.3 582.7 47.2 582.8C63 583 79 581 94.8 582.5C110.7 584 126.3 589 142 589.7C157.7 590.3 173.3 586.7 189.2 584C205 581.3 221 579.7 236.8 581C252.7 582.3 268.3 586.7 284.2 587.3C300 588 316 585 331.8 585.3C347.7 585.7 363.3 589.3 379 588.3C394.7 587.3 410.3 581.7 426.2 579.8C442 578 458 580 473.8 580.2C489.7 580.3 505.3 578.7 521 580.7C536.7 582.7 552.3 588.3 568.2 590.2C584 592 600 590 615.8 588.5C631.7 587 647.3 586 663.2 585.3C679 584.7 695 584.3 710.8 582.5C726.7 580.7 742.3 577.3 758 578.5C773.7 579.7 789.3 585.3 805.2 587C821 588.7 837 586.3 852.8 586.5C868.7 586.7 884.3 589.3 892.2 590.7L900 592L900 601L892.2 601C884.3 601 868.7 601 852.8 601C837 601 821 601 805.2 601C789.3 601 773.7 601 758 601C742.3 601 726.7 601 710.8 601C695 601 679 601 663.2 601C647.3 601 631.7 601 615.8 601C600 601 584 601 568.2 601C552.3 601 536.7 601 521 601C505.3 601 489.7 601 473.8 601C458 601 442 601 426.2 601C410.3 601 394.7 601 379 601C363.3 601 347.7 601 331.8 601C316 601 300 601 284.2 601C268.3 601 252.7 601 236.8 601C221 601 205 601 189.2 601C173.3 601 157.7 601 142 601C126.3 601 110.7 601 94.8 601C79 601 63 601 47.2 601C31.3 601 15.7 601 7.8 601L0 601Z" fill="#c62368"></path></svg>