<svg id="visual" viewBox="0 0 900 600" width="900" height="600" xmlns="http://www.w3.org/2000/svg" xmlns:xlink="http://www.w3.org/1999/xlink" version="1.1"><rect x="0" y="0" width="900" height="600" fill="#003056"></rect><path d="M0 383L7.8 382.7C15.7 382.3 31.3 381.7 47.2 386.2C63 390.7 79 400.3 94.8 410.7C110.7 421 126.3 432 142 429.7C157.7 427.3 173.3 411.7 189.2 410C205 408.3 221 420.7 236.8 421C252.7 421.3 268.3 409.7 284.2 409.7C300 409.7 316 421.3 331.8 427.3C347.7 433.3 363.3 433.7 379 426.7C394.7 419.7 410.3 405.3 426.2 401.3C442 397.3 458 403.7 473.8 406.5C489.7 409.3 505.3 408.7 521 413.2C536.7 417.7 552.3 427.3 568.2 433.2C584 439 600 441 615.8 432.8C631.7 424.7 647.3 406.3 663.2 408C679 409.7 695 431.3 710.8 436C726.7 440.7 742.3 428.3 758 423.7C773.7 419 789.3 422 805.2 420.3C821 418.7 837 412.3 852.8 404.3C868.7 396.3 884.3 386.7 892.2 381.8L900 377L900 601L892.2 601C884.3 601 868.7 601 852.8 601C837 601 821 601 805.2 601C789.3 601 773.7 601 758 601C742.3 601 726.7 601 710.8 601C695 601 679 601 663.2 601C647.3 601 631.7 601 615.8 601C600 601 584 601 568.2 601C552.3 601 536.7 601 521 601C505.3 601 489.7 601 473.8 601C458 601 442 601 426.2 601C410.3 601 394.7 601 379 601C363.3 601 347.7 601 331.8 601C316 601 300 601 284.2 601C268.3 601 252.7 601 236.8 601C221 601 205 601 189.2 601C173.3 601 157.7 601 142 601C126.3 601 110.7 601 94.8 601C79 601 63 601 47.2 601C31.3 601 15.7 601 7.8 601L0 601Z" fill="#fa7268"></path><path d="M0 470L7.8 462C15.7 454 31.3 438 47.2 434.7C63 431.3 79 440.7 94.8 442.3C110.7 444 126.3 438 142 430.5C157.7 423 173.3 414 189.2 414.3C205 414.7 221 424.3 236.8 436.5C252.7 448.7 268.3 463.3 284.2 464.2C300 465 316 452 331.8 444C347.7 436 363.3 433 379 438.7C394.7 444.3 410.3 458.7 426.2 460C442 461.3 458 449.7 473.8 445.8C489.7 442 505.3 446 521 450.3C536.7 454.7 552.3 459.3 568.2 455.2C584 451 600 438 615.8 429C631.7 420 647.3 415 663.2 415.2C679 415.3 695 420.7 710.8 429C726.7 437.3 742.3 448.7 758 455.8C773.7 463 789.3 466 805.2 464.2C821 462.3 837 455.7 852.8 450.8C868.7 446 884.3 443 892.2 441.5L900 440L900 601L892.2 601C884.3 601 868.7 601 852.8 601C837 601 821 601 805.2 601C789.3 601 773.7 601 758 601C742.3 601 726.7 601 710.8 601C695 601 679 601 663.2 601C647.3 601 631.7 601 615.8 601C600 601 584 601 568.2 601C552.3 601 536.7 601 521 601C505.3 601 489.7 601 473.8 601C458 601 442 601 426.2 601C410.3 601 394.7 601 379 601C363.3 601 347.7 601 331.8 601C316 601 300 601 284.2 601C268.3 601 252.7 601 236.8 601C221 601 205 601 189.2 601C173.3 601 157.7 601 142 601C126.3 601 110.7 601 94.8 601C79 601 63 601 47.2 601C31.3 601 15.7 601 7.8 601L0 601Z" fill="#f36567"></path><path d="M0 440L7.8 439.8C15.7 439.7 31.3 439.3 47.2 447.5C63 455.7 79 472.3 94.8 474.7C110.7 477 126.3 465 142 460.5C157.7 456 173.3 459 189.2 455.8C205 452.7 221 443.3 236.8 443.8C252.7 444.3 268.3 454.7 284.2 461C300 467.3 316 469.7 331.8 469.2C347.7 468.7 363.3 465.3 379 462.8C394.7 460.3 410.3 458.7 426.2 461.5C442 464.3 458 471.7 473.8 470.7C489.7 469.7 505.3 460.3 521 463.3C536.7 466.3 552.3 481.7 568.2 481.2C584 480.7 600 464.3 615.8 457.2C631.7 450 647.3 452 663.2 456.7C679 461.3 695 468.7 710.8 466.3C726.7 464 742.3 452 758 445.7C773.7 439.3 789.3 438.7 805.2 444.5C821 450.3 837 462.7 852.8 466C868.7 469.3 884.3 463.7 892.2 460.8L900 458L900 601L892.2 601C884.3 601 868.7 601 852.8 601C837 601 821 601 805.2 601C789.3 601 773.7 601 758 601C742.3 601 726.7 601 710.8 601C695 601 679 601 663.2 601C647.3 601 631.7 601 615.8 601C600 601 584 601 568.2 601C552.3 601 536.7 601 521 601C505.3 601 489.7 601 473.8 601C458 601 442 601 426.2 601C410.3 601 394.7 601 379 601C363.3 601 347.7 601 331.8 601C316 601 300 601 284.2 601C268.3 601 252.7 601 236.8 601C221 601 205 601 189.2 601C173.3 601 157.7 601 142 601C126.3 601 110.7 601 94.8 601C79 601 63 601 47.2 601C31.3 601 15.7 601 7.8 601L0 601Z" fill="#eb5967"></path><path d="M0 493L7.8 488.2C15.7 483.3 31.3 473.7 47.2 469C63 464.3 79 464.7 94.8 469.5C110.7 474.3 126.3 483.7 142 491.8C157.7 500 173.3 507 189.2 503.2C205 499.3 221 484.7 236.8 479C252.7 473.3 268.3 476.7 284.2 484.8C300 493 316 506 331.8 504.2C347.7 502.3 363.3 485.7 379 482.8C394.7 480 410.3 491 426.2 490.5C442 490 458 478 473.8 476.2C489.7 474.3 505.3 482.7 521 491.2C536.7 499.7 552.3 508.3 568.2 508.2C584 508 600 499 615.8 498.3C631.7 497.7 647.3 505.3 663.2 503.2C679 501 695 489 710.8 481.2C726.7 473.3 742.3 469.7 758 471.5C773.7 473.3 789.3 480.7 805.2 488.8C821 497 837 506 852.8 502C868.7 498 884.3 481 892.2 472.5L900 464L900 601L892.2 601C884.3 601 868.7 601 852.8 601C837 601 821 601 805.2 601C789.3 601 773.7 601 758 601C742.3 601 726.7 601 710.8 601C695 601 679 601 663.2 601C647.3 601 631.7 601 615.8 601C600 601 584 601 568.2 601C552.3 601 536.7 601 521 601C505.3 601 489.7 601 473.8 601C458 601 442 601 426.2 601C410.3 601 394.7 601 379 601C363.3 601 347.7 601 331.8 601C316 601 300 601 284.2 601C268.3 601 252.7 601 236.8 601C221 601 205 601 189.2 601C173.3 601 157.7 601 142 601C126.3 601 110.7 601 94.8 601C79 601 63 601 47.2 601C31.3 601 15.7 601 7.8 601L0 601Z" fill="#e34c67"></path><path d="M0 494L7.8 496C15.7 498 31.3 502 47.2 509.3C63 516.7 79 527.3 94.8 532.3C110.7 537.3 126.3 536.7 142 530C157.7 523.3 173.3 510.7 189.2 507.5C205 504.3 221 510.7 236.8 517.5C252.7 524.3 268.3 531.7 284.2 527.5C300 523.3 316 507.7 331.8 507.7C347.7 507.7 363.3 523.3 379 529.3C394.7 535.3 410.3 531.7 426.2 530.3C442 529 458 530 473.8 528.8C489.7 527.7 505.3 524.3 521 520.7C536.7 517 552.3 513 568.2 513.7C584 514.3 600 519.7 615.8 525.7C631.7 531.7 647.3 538.3 663.2 536.5C679 534.7 695 524.3 710.8 523.5C726.7 522.7 742.3 531.3 758 530C773.7 528.7 789.3 517.3 805.2 517.3C821 517.3 837 528.7 852.8 528.7C868.7 528.7 884.3 517.3 892.2 511.7L900 506L900 601L892.2 601C884.3 601 868.7 601 852.8 601C837 601 821 601 805.2 601C789.3 601 773.7 601 758 601C742.3 601 726.7 601 710.8 601C695 601 679 601 663.2 601C647.3 601 631.7 601 615.8 601C600 601 584 601 568.2 601C552.3 601 536.7 601 521 601C505.3 601 489.7 601 473.8 601C458 601 442 601 426.2 601C410.3 601 394.7 601 379 601C363.3 601 347.7 601 331.8 601C316 601 300 601 284.2 601C268.3 601 252.7 601 236.8 601C221 601 205 601 189.2 601C173.3 601 157.7 601 142 601C126.3 601 110.7 601 94.8 601C79 601 63 601 47.2 601C31.3 601 15.7 601 7.8 601L0 601Z" fill="#da3f67"></path><path d="M0 566L7.8 564.2C15.7 562.3 31.3 558.7 47.2 555.2C63 551.7 79 548.3 94.8 542.7C110.7 537 126.3 529 142 530.2C157.7 531.3 173.3 541.7 189.2 548.2C205 554.7 221 557.3 236.8 553C252.7 548.7 268.3 537.3 284.2 535.2C300 533 316 540 331.8 545.3C347.7 550.7 363.3 554.3 379 556C394.7 557.7 410.3 557.3 426.2 558.3C442 559.3 458 561.7 473.8 559.3C489.7 557 505.3 550 521 545.3C536.7 540.7 552.3 538.3 568.2 535.7C584 533 600 530 615.8 531.8C631.7 533.7 647.3 540.3 663.2 545.5C679 550.7 695 554.3 710.8 556.7C726.7 559 742.3 560 758 558.7C773.7 557.3 789.3 553.7 805.2 547.2C821 540.7 837 531.3 852.8 531.7C868.7 532 884.3 542 892.2 547L900 552L900 601L892.2 601C884.3 601 868.7 601 852.8 601C837 601 821 601 805.2 601C789.3 601 773.7 601 758 601C742.3 601 726.7 601 710.8 601C695 601 679 601 663.2 601C647.3 601 631.7 601 615.8 601C600 601 584 601 568.2 601C552.3 601 536.7 601 521 601C505.3 601 489.7 601 473.8 601C458 601 442 601 426.2 601C410.3 601 394.7 601 379 601C363.3 601 347.7 601 331.8 601C316 601 300 601 284.2 601C268.3 601 252.7 601 236.8 601C221 601 205 601 189.2 601C173.3 601 157.7 601 142 601C126.3 601 110.7 601 94.8 601C79 601 63 601 47.2 601C31.3 601 15.7 601 7.8 601L0 601Z" fill="#d03267"></path><path d="M0 558L7.8 560C15.7 562 31.3 566 47.2 566.2C63 566.3 79 562.7 94.8 565.7C110.7 568.7 126.3 578.3 142 579.7C157.7 581 173.3 574 189.2 568.8C205 563.7 221 560.3 236.8 562.8C252.7 565.3 268.3 573.7 284.2 574.8C300 576 316 570 331.8 571C347.7 572 363.3 580 379 578.2C394.7 576.3 410.3 564.7 426.2 560.7C442 556.7 458 560.3 473.8 560.7C489.7 561 505.3 558 521 562.2C536.7 566.3 552.3 577.7 568.2 581.5C584 585.3 600 581.7 615.8 578.5C631.7 575.3 647.3 572.7 663.2 571.3C679 570 695 570 710.8 566.5C726.7 563 742.3 556 758 558.2C773.7 560.3 789.3 571.7 805.2 575C821 578.3 837 573.7 852.8 573.8C868.7 574 884.3 579 892.2 581.5L900 584L900 601L892.2 601C884.3 601 868.7 601 852.8 601C837 601 821 601 805.2 601C789.3 601 773.7 601 758 601C742.3 601 726.7 601 710.8 601C695 601 679 601 663.2 601C647.3 601 631.7 601 615.8 601C600 601 584 601 568.2 601C552.3 601 536.7 601 521 601C505.3 601 489.7 601 473.8 601C458 601 442 601 426.2 601C410.3 601 394.7 601 379 601C363.3 601 347.7 601 331.8 601C316 601 300 601 284.2 601C268.3 601 252.7 601 236.8 601C221 601 205 601 189.2 601C173.3 601 157.7 601 142 601C126.3 601 110.7 601 94.8 601C79 601 63 601 47.2 601C31.3 601 15.7 601 7.8 601L0 601Z" fill="#c62368"></path></svg>