<svg id="visual" viewBox="0 0 900 600" width="900" height="600" xmlns="http://www.w3.org/2000/svg" xmlns:xlink="http://www.w3.org/1999/xlink" version="1.1"><rect x="0" y="0" width="900" height="600" fill="#003056"></rect><path d="M0 276L7.8 275.3C15.7 274.7 31.3 273.3 47.2 279.8C63 286.3 79 300.7 94.8 316.2C110.7 331.7 126.3 348.3 142 345C157.7 341.7 173.3 318.3 189.2 315.8C205 313.3 221 331.7 236.8 332.2C252.7 332.7 268.3 315.3 284.2 315.3C300 315.3 316 332.7 331.8 341.7C347.7 350.7 363.3 351.3 379 340.8C394.7 330.3 410.3 308.7 426.2 302.7C442 296.7 458 306.3 473.8 310.7C489.7 315 505.3 314 521 320.7C536.7 327.3 552.3 341.7 568.2 350.3C584 359 600 362 615.8 349.8C631.7 337.7 647.3 310.3 663.2 312.7C679 315 695 347 710.8 353.8C726.7 360.7 742.3 342.3 758 335.5C773.7 328.7 789.3 333.3 805.2 331C821 328.7 837 319.3 852.8 307.2C868.7 295 884.3 280 892.2 272.5L900 265L900 601L892.2 601C884.3 601 868.7 601 852.8 601C837 601 821 601 805.2 601C789.3 601 773.7 601 758 601C742.3 601 726.7 601 710.8 601C695 601 679 601 663.2 601C647.3 601 631.7 601 615.8 601C600 601 584 601 568.2 601C552.3 601 536.7 601 521 601C505.3 601 489.7 601 473.8 601C458 601 442 601 426.2 601C410.3 601 394.7 601 379 601C363.3 601 347.7 601 331.8 601C316 601 300 601 284.2 601C268.3 601 252.7 601 236.8 601C221 601 205 601 189.2 601C173.3 601 157.7 601 142 601C126.3 601 110.7 601 94.8 601C79 601 63 601 47.2 601C31.3 601 15.7 601 7.8 601L0 601Z" fill="#fa7268"></path><path d="M0 406L7.8 393.8C15.7 381.7 31.3 357.3 47.2 352.2C63 347 79 361 94.8 363.7C110.7 366.3 126.3 357.7 142 346.5C157.7 335.3 173.3 321.7 189.2 322C205 322.3 221 336.7 236.8 355C252.7 373.3 268.3 395.7 284.2 396.8C300 398 316 378 331.8 365.8C347.7 353.7 363.3 349.3 379 358C394.7 366.7 410.3 388.3 426.2 390.5C442 392.7 458 375.3 473.8 369.7C489.7 364 505.3 370 521 376.5C536.7 383 552.3 390 568.2 383.7C584 377.3 600 357.7 615.8 344C631.7 330.3 647.3 322.7 663.2 322.8C679 323 695 331 710.8 343.5C726.7 356 742.3 373 758 383.8C773.7 394.7 789.3 399.3 805.2 396.8C821 394.3 837 384.7 852.8 377.3C868.7 370 884.3 365 892.2 362.5L900 360L900 601L892.2 601C884.3 601 868.7 601 852.8 601C837 601 821 601 805.2 601C789.3 601 773.7 601 758 601C742.3 601 726.7 601 710.8 601C695 601 679 601 663.2 601C647.3 601 631.7 601 615.8 601C600 601 584 601 568.2 601C552.3 601 536.7 601 521 601C505.3 601 489.7 601 473.8 601C458 601 442 601 426.2 601C410.3 601 394.7 601 379 601C363.3 601 347.7 601 331.8 601C316 601 300 601 284.2 601C268.3 601 252.7 601 236.8 601C221 601 205 601 189.2 601C173.3 601 157.7 601 142 601C126.3 601 110.7 601 94.8 601C79 601 63 601 47.2 601C31.3 601 15.7 601 7.8 601L0 601Z" fill="#f36567"></path><path d="M0 360L7.8 359.8C15.7 359.7 31.3 359.3 47.2 371.7C63 384 79 409 94.8 412.5C110.7 416 126.3 398 142 391.3C157.7 384.7 173.3 389.3 189.2 384.5C205 379.7 221 365.3 236.8 366C252.7 366.7 268.3 382.3 284.2 392C300 401.7 316 405.3 331.8 404.7C347.7 404 363.3 399 379 395.2C394.7 391.3 410.3 388.7 426.2 392.8C442 397 458 408 473.8 406.5C489.7 405 505.3 391 521 395.5C536.7 400 552.3 423 568.2 422.2C584 421.3 600 396.7 615.8 386C631.7 375.3 647.3 378.7 663.2 385.7C679 392.7 695 403.3 710.8 399.7C726.7 396 742.3 378 758 368.7C773.7 359.3 789.3 358.7 805.2 367.5C821 376.3 837 394.7 852.8 399.5C868.7 404.3 884.3 395.7 892.2 391.3L900 387L900 601L892.2 601C884.3 601 868.7 601 852.8 601C837 601 821 601 805.2 601C789.3 601 773.7 601 758 601C742.3 601 726.7 601 710.8 601C695 601 679 601 663.2 601C647.3 601 631.7 601 615.8 601C600 601 584 601 568.2 601C552.3 601 536.7 601 521 601C505.3 601 489.7 601 473.8 601C458 601 442 601 426.2 601C410.3 601 394.7 601 379 601C363.3 601 347.7 601 331.8 601C316 601 300 601 284.2 601C268.3 601 252.7 601 236.8 601C221 601 205 601 189.2 601C173.3 601 157.7 601 142 601C126.3 601 110.7 601 94.8 601C79 601 63 601 47.2 601C31.3 601 15.7 601 7.8 601L0 601Z" fill="#eb5967"></path><path d="M0 440L7.8 432.8C15.7 425.7 31.3 411.3 47.2 404.2C63 397 79 397 94.8 404.2C110.7 411.3 126.3 425.7 142 438C157.7 450.3 173.3 460.7 189.2 454.8C205 449 221 427 236.8 418.5C252.7 410 268.3 415 284.2 427.2C300 439.3 316 458.7 331.8 455.8C347.7 453 363.3 428 379 424C394.7 420 410.3 437 426.2 436.5C442 436 458 418 473.8 415.2C489.7 412.3 505.3 424.7 521 437.5C536.7 450.3 552.3 463.7 568.2 463.5C584 463.3 600 449.7 615.8 448.7C631.7 447.7 647.3 459.3 663.2 456C679 452.7 695 434.3 710.8 422.3C726.7 410.3 742.3 404.7 758 407.5C773.7 410.3 789.3 421.7 805.2 434C821 446.3 837 459.7 852.8 453.5C868.7 447.3 884.3 421.7 892.2 408.8L900 396L900 601L892.2 601C884.3 601 868.7 601 852.8 601C837 601 821 601 805.2 601C789.3 601 773.7 601 758 601C742.3 601 726.7 601 710.8 601C695 601 679 601 663.2 601C647.3 601 631.7 601 615.8 601C600 601 584 601 568.2 601C552.3 601 536.7 601 521 601C505.3 601 489.7 601 473.8 601C458 601 442 601 426.2 601C410.3 601 394.7 601 379 601C363.3 601 347.7 601 331.8 601C316 601 300 601 284.2 601C268.3 601 252.7 601 236.8 601C221 601 205 601 189.2 601C173.3 601 157.7 601 142 601C126.3 601 110.7 601 94.8 601C79 601 63 601 47.2 601C31.3 601 15.7 601 7.8 601L0 601Z" fill="#e34c67"></path><path d="M0 442L7.8 444.8C15.7 447.7 31.3 453.3 47.2 464.2C63 475 79 491 94.8 498.7C110.7 506.3 126.3 505.7 142 495.8C157.7 486 173.3 467 189.2 462.2C205 457.3 221 466.7 236.8 476.8C252.7 487 268.3 498 284.2 491.8C300 485.7 316 462.3 331.8 462.5C347.7 462.7 363.3 486.3 379 495.3C394.7 504.3 410.3 498.7 426.2 496.3C442 494 458 495 473.8 493.3C489.7 491.7 505.3 487.3 521 482.2C536.7 477 552.3 471 568.2 471.7C584 472.3 600 479.7 615.8 488.5C631.7 497.3 647.3 507.7 663.2 505C679 502.3 695 486.7 710.8 485.3C726.7 484 742.3 497 758 495C773.7 493 789.3 476 805.2 476C821 476 837 493 852.8 493.2C868.7 493.3 884.3 476.7 892.2 468.3L900 460L900 601L892.2 601C884.3 601 868.7 601 852.8 601C837 601 821 601 805.2 601C789.3 601 773.7 601 758 601C742.3 601 726.7 601 710.8 601C695 601 679 601 663.2 601C647.3 601 631.7 601 615.8 601C600 601 584 601 568.2 601C552.3 601 536.7 601 521 601C505.3 601 489.7 601 473.8 601C458 601 442 601 426.2 601C410.3 601 394.7 601 379 601C363.3 601 347.7 601 331.8 601C316 601 300 601 284.2 601C268.3 601 252.7 601 236.8 601C221 601 205 601 189.2 601C173.3 601 157.7 601 142 601C126.3 601 110.7 601 94.8 601C79 601 63 601 47.2 601C31.3 601 15.7 601 7.8 601L0 601Z" fill="#da3f67"></path><path d="M0 549L7.8 546.3C15.7 543.7 31.3 538.3 47.2 533.2C63 528 79 523 94.8 514.3C110.7 505.7 126.3 493.3 142 495.2C157.7 497 173.3 513 189.2 522.8C205 532.7 221 536.3 236.8 529.8C252.7 523.3 268.3 506.7 284.2 503.5C300 500.3 316 510.7 331.8 518.7C347.7 526.7 363.3 532.3 379 535C394.7 537.7 410.3 537.3 426.2 538.7C442 540 458 543 473.8 539.3C489.7 535.7 505.3 525.3 521 518.3C536.7 511.3 552.3 507.7 568.2 503.7C584 499.7 600 495.3 615.8 498.3C631.7 501.3 647.3 511.7 663.2 519.5C679 527.3 695 532.7 710.8 535.8C726.7 539 742.3 540 758 538C773.7 536 789.3 531 805.2 521.5C821 512 837 498 852.8 498.5C868.7 499 884.3 514 892.2 521.5L900 529L900 601L892.2 601C884.3 601 868.7 601 852.8 601C837 601 821 601 805.2 601C789.3 601 773.7 601 758 601C742.3 601 726.7 601 710.8 601C695 601 679 601 663.2 601C647.3 601 631.7 601 615.8 601C600 601 584 601 568.2 601C552.3 601 536.7 601 521 601C505.3 601 489.7 601 473.8 601C458 601 442 601 426.2 601C410.3 601 394.7 601 379 601C363.3 601 347.7 601 331.8 601C316 601 300 601 284.2 601C268.3 601 252.7 601 236.8 601C221 601 205 601 189.2 601C173.3 601 157.7 601 142 601C126.3 601 110.7 601 94.8 601C79 601 63 601 47.2 601C31.3 601 15.7 601 7.8 601L0 601Z" fill="#d03267"></path><path d="M0 537L7.8 540.2C15.7 543.3 31.3 549.7 47.2 549.8C63 550 79 544 94.8 548.5C110.7 553 126.3 568 142 570.2C157.7 572.3 173.3 561.7 189.2 553.7C205 545.7 221 540.3 236.8 544.2C252.7 548 268.3 561 284.2 563C300 565 316 556 331.8 557.3C347.7 558.7 363.3 570.3 379 567.3C394.7 564.3 410.3 546.7 426.2 540.8C442 535 458 541 473.8 541.7C489.7 542.3 505.3 537.7 521 543.8C536.7 550 552.3 567 568.2 572.7C584 578.3 600 572.7 615.8 568C631.7 563.3 647.3 559.7 663.2 557.7C679 555.7 695 555.3 710.8 549.8C726.7 544.3 742.3 533.7 758 537.2C773.7 540.7 789.3 558.3 805.2 563.5C821 568.7 837 561.3 852.8 561.5C868.7 561.7 884.3 569.3 892.2 573.2L900 577L900 601L892.2 601C884.3 601 868.7 601 852.8 601C837 601 821 601 805.2 601C789.3 601 773.7 601 758 601C742.3 601 726.7 601 710.8 601C695 601 679 601 663.2 601C647.3 601 631.7 601 615.8 601C600 601 584 601 568.2 601C552.3 601 536.7 601 521 601C505.3 601 489.7 601 473.8 601C458 601 442 601 426.2 601C410.3 601 394.7 601 379 601C363.3 601 347.7 601 331.8 601C316 601 300 601 284.2 601C268.3 601 252.7 601 236.8 601C221 601 205 601 189.2 601C173.3 601 157.7 601 142 601C126.3 601 110.7 601 94.8 601C79 601 63 601 47.2 601C31.3 601 15.7 601 7.8 601L0 601Z" fill="#c62368"></path></svg>