<svg id="visual" viewBox="0 0 900 600" width="900" height="600" xmlns="http://www.w3.org/2000/svg" xmlns:xlink="http://www.w3.org/1999/xlink" version="1.1"><rect x="0" y="0" width="900" height="600" fill="#003056"></rect><path d="M0 168L7.8 167.2C15.7 166.3 31.3 164.7 47.2 173.3C63 182 79 201 94.8 221.7C110.7 242.3 126.3 264.7 142 260.2C157.7 255.7 173.3 224.3 189.2 220.8C205 217.3 221 241.7 236.8 242.3C252.7 243 268.3 220 284.2 220.2C300 220.3 316 243.7 331.8 255.8C347.7 268 363.3 269 379 255C394.7 241 410.3 212 426.2 203.8C442 195.7 458 208.3 473.8 214C489.7 219.7 505.3 218.3 521 227.3C536.7 236.3 552.3 255.7 568.2 267.3C584 279 600 283 615.8 266.7C631.7 250.3 647.3 213.7 663.2 216.8C679 220 695 263 710.8 272.3C726.7 281.7 742.3 257.3 758 248.2C773.7 239 789.3 245 805.2 241.7C821 238.3 837 225.7 852.8 209.5C868.7 193.3 884.3 173.7 892.2 163.8L900 154L900 601L892.2 601C884.3 601 868.7 601 852.8 601C837 601 821 601 805.2 601C789.3 601 773.7 601 758 601C742.3 601 726.7 601 710.8 601C695 601 679 601 663.2 601C647.3 601 631.7 601 615.8 601C600 601 584 601 568.2 601C552.3 601 536.7 601 521 601C505.3 601 489.7 601 473.8 601C458 601 442 601 426.2 601C410.3 601 394.7 601 379 601C363.3 601 347.7 601 331.8 601C316 601 300 601 284.2 601C268.3 601 252.7 601 236.8 601C221 601 205 601 189.2 601C173.3 601 157.7 601 142 601C126.3 601 110.7 601 94.8 601C79 601 63 601 47.2 601C31.3 601 15.7 601 7.8 601L0 601Z" fill="#fa7268"></path><path d="M0 341L7.8 325C15.7 309 31.3 277 47.2 270.3C63 263.7 79 282.3 94.8 285.8C110.7 289.3 126.3 277.7 142 262.7C157.7 247.7 173.3 229.3 189.2 229.7C205 230 221 249 236.8 273.3C252.7 297.7 268.3 327.3 284.2 329C300 330.7 316 304.3 331.8 288.2C347.7 272 363.3 266 379 277.5C394.7 289 410.3 318 426.2 321C442 324 458 301 473.8 293.3C489.7 285.7 505.3 293.3 521 301.8C536.7 310.3 552.3 319.7 568.2 311.2C584 302.7 600 276.3 615.8 258.2C631.7 240 647.3 230 663.2 230.3C679 230.7 695 241.3 710.8 258C726.7 274.7 742.3 297.3 758 311.8C773.7 326.3 789.3 332.7 805.2 329.3C821 326 837 313 852.8 303.3C868.7 293.7 884.3 287.3 892.2 284.2L900 281L900 601L892.2 601C884.3 601 868.7 601 852.8 601C837 601 821 601 805.2 601C789.3 601 773.7 601 758 601C742.3 601 726.7 601 710.8 601C695 601 679 601 663.2 601C647.3 601 631.7 601 615.8 601C600 601 584 601 568.2 601C552.3 601 536.7 601 521 601C505.3 601 489.7 601 473.8 601C458 601 442 601 426.2 601C410.3 601 394.7 601 379 601C363.3 601 347.7 601 331.8 601C316 601 300 601 284.2 601C268.3 601 252.7 601 236.8 601C221 601 205 601 189.2 601C173.3 601 157.7 601 142 601C126.3 601 110.7 601 94.8 601C79 601 63 601 47.2 601C31.3 601 15.7 601 7.8 601L0 601Z" fill="#f36567"></path><path d="M0 281L7.8 280.7C15.7 280.3 31.3 279.7 47.2 296C63 312.3 79 345.7 94.8 350.3C110.7 355 126.3 331 142 322.2C157.7 313.3 173.3 319.7 189.2 313.2C205 306.7 221 287.3 236.8 288.2C252.7 289 268.3 310 284.2 323C300 336 316 341 331.8 340.2C347.7 339.3 363.3 332.7 379 327.5C394.7 322.3 410.3 318.7 426.2 324.2C442 329.7 458 344.3 473.8 342.3C489.7 340.3 505.3 321.7 521 327.7C536.7 333.7 552.3 364.3 568.2 363.2C584 362 600 329 615.8 314.7C631.7 300.3 647.3 304.7 663.2 314.2C679 323.7 695 338.3 710.8 333.5C726.7 328.7 742.3 304.3 758 291.8C773.7 279.3 789.3 278.7 805.2 290.5C821 302.3 837 326.7 852.8 333C868.7 339.3 884.3 327.7 892.2 321.8L900 316L900 601L892.2 601C884.3 601 868.7 601 852.8 601C837 601 821 601 805.2 601C789.3 601 773.7 601 758 601C742.3 601 726.7 601 710.8 601C695 601 679 601 663.2 601C647.3 601 631.7 601 615.8 601C600 601 584 601 568.2 601C552.3 601 536.7 601 521 601C505.3 601 489.7 601 473.8 601C458 601 442 601 426.2 601C410.3 601 394.7 601 379 601C363.3 601 347.7 601 331.8 601C316 601 300 601 284.2 601C268.3 601 252.7 601 236.8 601C221 601 205 601 189.2 601C173.3 601 157.7 601 142 601C126.3 601 110.7 601 94.8 601C79 601 63 601 47.2 601C31.3 601 15.7 601 7.8 601L0 601Z" fill="#eb5967"></path><path d="M0 388L7.8 378.2C15.7 368.3 31.3 348.7 47.2 339C63 329.3 79 329.7 94.8 339.5C110.7 349.3 126.3 368.7 142 385.2C157.7 401.7 173.3 415.3 189.2 407.3C205 399.3 221 369.7 236.8 358.3C252.7 347 268.3 354 284.2 370.3C300 386.7 316 412.3 331.8 408.5C347.7 404.7 363.3 371.3 379 366C394.7 360.7 410.3 383.3 426.2 382.7C442 382 458 358 473.8 354.2C489.7 350.3 505.3 366.7 521 383.7C536.7 400.7 552.3 418.3 568.2 418C584 417.7 600 399.3 615.8 398C631.7 396.7 647.3 412.3 663.2 407.8C679 403.3 695 378.7 710.8 362.7C726.7 346.7 742.3 339.3 758 343.3C773.7 347.3 789.3 362.7 805.2 379.2C821 395.7 837 413.3 852.8 405.2C868.7 397 884.3 363 892.2 346L900 329L900 601L892.2 601C884.3 601 868.7 601 852.8 601C837 601 821 601 805.2 601C789.3 601 773.7 601 758 601C742.3 601 726.7 601 710.8 601C695 601 679 601 663.2 601C647.3 601 631.7 601 615.8 601C600 601 584 601 568.2 601C552.3 601 536.7 601 521 601C505.3 601 489.7 601 473.8 601C458 601 442 601 426.2 601C410.3 601 394.7 601 379 601C363.3 601 347.7 601 331.8 601C316 601 300 601 284.2 601C268.3 601 252.7 601 236.8 601C221 601 205 601 189.2 601C173.3 601 157.7 601 142 601C126.3 601 110.7 601 94.8 601C79 601 63 601 47.2 601C31.3 601 15.7 601 7.8 601L0 601Z" fill="#e34c67"></path><path d="M0 389L7.8 393C15.7 397 31.3 405 47.2 419.5C63 434 79 455 94.8 465.2C110.7 475.3 126.3 474.7 142 461.7C157.7 448.7 173.3 423.3 189.2 416.8C205 410.3 221 422.7 236.8 436.2C252.7 449.7 268.3 464.3 284.2 456.2C300 448 316 417 331.8 417.2C347.7 417.3 363.3 448.7 379 460.5C394.7 472.3 410.3 464.7 426.2 461.7C442 458.7 458 460.3 473.8 458.2C489.7 456 505.3 450 521 443C536.7 436 552.3 428 568.2 429C584 430 600 440 615.8 451.7C631.7 463.3 647.3 476.7 663.2 473.2C679 469.7 695 449.3 710.8 447.7C726.7 446 742.3 463 758 460.2C773.7 457.3 789.3 434.7 805.2 434.7C821 434.7 837 457.3 852.8 457.5C868.7 457.7 884.3 435.3 892.2 424.2L900 413L900 601L892.2 601C884.3 601 868.7 601 852.8 601C837 601 821 601 805.2 601C789.3 601 773.7 601 758 601C742.3 601 726.7 601 710.8 601C695 601 679 601 663.2 601C647.3 601 631.7 601 615.8 601C600 601 584 601 568.2 601C552.3 601 536.7 601 521 601C505.3 601 489.7 601 473.8 601C458 601 442 601 426.2 601C410.3 601 394.7 601 379 601C363.3 601 347.7 601 331.8 601C316 601 300 601 284.2 601C268.3 601 252.7 601 236.8 601C221 601 205 601 189.2 601C173.3 601 157.7 601 142 601C126.3 601 110.7 601 94.8 601C79 601 63 601 47.2 601C31.3 601 15.7 601 7.8 601L0 601Z" fill="#da3f67"></path><path d="M0 533L7.8 529.3C15.7 525.7 31.3 518.3 47.2 511.2C63 504 79 497 94.8 485.5C110.7 474 126.3 458 142 460.5C157.7 463 173.3 484 189.2 497.2C205 510.3 221 515.7 236.8 507C252.7 498.3 268.3 475.7 284.2 471.3C300 467 316 481 331.8 491.8C347.7 502.7 363.3 510.3 379 513.8C394.7 517.3 410.3 516.7 426.2 518.5C442 520.3 458 524.7 473.8 520C489.7 515.3 505.3 501.7 521 492.2C536.7 482.7 552.3 477.3 568.2 472C584 466.7 600 461.3 615.8 465.3C631.7 469.3 647.3 482.7 663.2 493C679 503.3 695 510.7 710.8 515C726.7 519.3 742.3 520.7 758 517.8C773.7 515 789.3 508 805.2 495.3C821 482.7 837 464.3 852.8 465.2C868.7 466 884.3 486 892.2 496L900 506L900 601L892.2 601C884.3 601 868.7 601 852.8 601C837 601 821 601 805.2 601C789.3 601 773.7 601 758 601C742.3 601 726.7 601 710.8 601C695 601 679 601 663.2 601C647.3 601 631.7 601 615.8 601C600 601 584 601 568.2 601C552.3 601 536.7 601 521 601C505.3 601 489.7 601 473.8 601C458 601 442 601 426.2 601C410.3 601 394.7 601 379 601C363.3 601 347.7 601 331.8 601C316 601 300 601 284.2 601C268.3 601 252.7 601 236.8 601C221 601 205 601 189.2 601C173.3 601 157.7 601 142 601C126.3 601 110.7 601 94.8 601C79 601 63 601 47.2 601C31.3 601 15.7 601 7.8 601L0 601Z" fill="#d03267"></path><path d="M0 516L7.8 520.3C15.7 524.7 31.3 533.3 47.2 533.7C63 534 79 526 94.8 532C110.7 538 126.3 558 142 560.8C157.7 563.7 173.3 549.3 189.2 538.7C205 528 221 521 236.8 526C252.7 531 268.3 548 284.2 550.5C300 553 316 541 331.8 542.8C347.7 544.7 363.3 560.3 379 556.5C394.7 552.7 410.3 529.3 426.2 521.5C442 513.7 458 521.3 473.8 522.2C489.7 523 505.3 517 521 525.3C536.7 533.7 552.3 556.3 568.2 563.8C584 571.3 600 563.7 615.8 557.3C631.7 551 647.3 546 663.2 543.5C679 541 695 541 710.8 533.8C726.7 526.7 742.3 512.3 758 516.8C773.7 521.3 789.3 544.7 805.2 551.5C821 558.3 837 548.7 852.8 549C868.7 549.3 884.3 559.7 892.2 564.8L900 570L900 601L892.2 601C884.3 601 868.7 601 852.8 601C837 601 821 601 805.2 601C789.3 601 773.7 601 758 601C742.3 601 726.7 601 710.8 601C695 601 679 601 663.2 601C647.3 601 631.7 601 615.8 601C600 601 584 601 568.2 601C552.3 601 536.7 601 521 601C505.3 601 489.7 601 473.8 601C458 601 442 601 426.2 601C410.3 601 394.7 601 379 601C363.3 601 347.7 601 331.8 601C316 601 300 601 284.2 601C268.3 601 252.7 601 236.8 601C221 601 205 601 189.2 601C173.3 601 157.7 601 142 601C126.3 601 110.7 601 94.8 601C79 601 63 601 47.2 601C31.3 601 15.7 601 7.8 601L0 601Z" fill="#c62368"></path></svg>