<svg id="visual" viewBox="0 0 900 600" width="900" height="600" xmlns="http://www.w3.org/2000/svg" xmlns:xlink="http://www.w3.org/1999/xlink" version="1.1"><rect x="0" y="0" width="900" height="600" fill="#003056"></rect><path d="M0 60L7.8 59C15.7 58 31.3 56 47.2 67C63 78 79 102 94.8 128C110.7 154 126.3 182 142 176.3C157.7 170.7 173.3 131.3 189.2 126.8C205 122.3 221 152.7 236.8 153.5C252.7 154.3 268.3 125.7 284.2 125.8C300 126 316 155 331.8 170C347.7 185 363.3 186 379 168.5C394.7 151 410.3 115 426.2 105C442 95 458 111 473.8 118.2C489.7 125.3 505.3 123.7 521 134.8C536.7 146 552.3 170 568.2 184.5C584 199 600 204 615.8 183.7C631.7 163.3 647.3 117.7 663.2 121.7C679 125.7 695 179.3 710.8 190.8C726.7 202.3 742.3 171.7 758 160.2C773.7 148.7 789.3 156.3 805.2 152.3C821 148.3 837 132.7 852.8 112.5C868.7 92.3 884.3 67.7 892.2 55.3L900 43L900 601L892.2 601C884.3 601 868.7 601 852.8 601C837 601 821 601 805.2 601C789.3 601 773.7 601 758 601C742.3 601 726.7 601 710.8 601C695 601 679 601 663.2 601C647.3 601 631.7 601 615.8 601C600 601 584 601 568.2 601C552.3 601 536.7 601 521 601C505.3 601 489.7 601 473.8 601C458 601 442 601 426.2 601C410.3 601 394.7 601 379 601C363.3 601 347.7 601 331.8 601C316 601 300 601 284.2 601C268.3 601 252.7 601 236.8 601C221 601 205 601 189.2 601C173.3 601 157.7 601 142 601C126.3 601 110.7 601 94.8 601C79 601 63 601 47.2 601C31.3 601 15.7 601 7.8 601L0 601Z" fill="#fa7268"></path><path d="M0 277L7.8 256.8C15.7 236.7 31.3 196.3 47.2 187.8C63 179.3 79 202.7 94.8 207C110.7 211.3 126.3 196.7 142 178C157.7 159.3 173.3 136.7 189.2 137.3C205 138 221 162 236.8 192.5C252.7 223 268.3 260 284.2 262C300 264 316 231 331.8 210.8C347.7 190.7 363.3 183.3 379 197.7C394.7 212 410.3 248 426.2 251.5C442 255 458 226 473.8 216.5C489.7 207 505.3 217 521 227.8C536.7 238.7 552.3 250.3 568.2 239.7C584 229 600 196 615.8 173.3C631.7 150.7 647.3 138.3 663.2 138.7C679 139 695 152 710.8 172.8C726.7 193.7 742.3 222.3 758 240.5C773.7 258.7 789.3 266.3 805.2 262C821 257.7 837 241.3 852.8 229.2C868.7 217 884.3 209 892.2 205L900 201L900 601L892.2 601C884.3 601 868.7 601 852.8 601C837 601 821 601 805.2 601C789.3 601 773.7 601 758 601C742.3 601 726.7 601 710.8 601C695 601 679 601 663.2 601C647.3 601 631.7 601 615.8 601C600 601 584 601 568.2 601C552.3 601 536.7 601 521 601C505.3 601 489.7 601 473.8 601C458 601 442 601 426.2 601C410.3 601 394.7 601 379 601C363.3 601 347.7 601 331.8 601C316 601 300 601 284.2 601C268.3 601 252.7 601 236.8 601C221 601 205 601 189.2 601C173.3 601 157.7 601 142 601C126.3 601 110.7 601 94.8 601C79 601 63 601 47.2 601C31.3 601 15.7 601 7.8 601L0 601Z" fill="#f36567"></path><path d="M0 201L7.8 200.8C15.7 200.7 31.3 200.3 47.2 220.8C63 241.3 79 282.7 94.8 288.3C110.7 294 126.3 264 142 253C157.7 242 173.3 250 189.2 242C205 234 221 210 236.8 211C252.7 212 268.3 238 284.2 254.2C300 270.3 316 276.7 331.8 275.5C347.7 274.3 363.3 265.7 379 259C394.7 252.3 410.3 247.7 426.2 254.7C442 261.7 458 280.3 473.8 278C489.7 275.7 505.3 252.3 521 259.8C536.7 267.3 552.3 305.7 568.2 304.3C584 303 600 262 615.8 244.2C631.7 226.3 647.3 231.7 663.2 243.3C679 255 695 273 710.8 266.8C726.7 260.7 742.3 230.3 758 214.7C773.7 199 789.3 198 805.2 212.8C821 227.7 837 258.3 852.8 266.5C868.7 274.7 884.3 260.3 892.2 253.2L900 246L900 601L892.2 601C884.3 601 868.7 601 852.8 601C837 601 821 601 805.2 601C789.3 601 773.7 601 758 601C742.3 601 726.7 601 710.8 601C695 601 679 601 663.2 601C647.3 601 631.7 601 615.8 601C600 601 584 601 568.2 601C552.3 601 536.7 601 521 601C505.3 601 489.7 601 473.8 601C458 601 442 601 426.2 601C410.3 601 394.7 601 379 601C363.3 601 347.7 601 331.8 601C316 601 300 601 284.2 601C268.3 601 252.7 601 236.8 601C221 601 205 601 189.2 601C173.3 601 157.7 601 142 601C126.3 601 110.7 601 94.8 601C79 601 63 601 47.2 601C31.3 601 15.7 601 7.8 601L0 601Z" fill="#eb5967"></path><path d="M0 335L7.8 322.8C15.7 310.7 31.3 286.3 47.2 274.3C63 262.3 79 262.7 94.8 274.8C110.7 287 126.3 311 142 331.5C157.7 352 173.3 369 189.2 359C205 349 221 312 236.8 297.8C252.7 283.7 268.3 292.3 284.2 312.8C300 333.3 316 365.7 331.8 361C347.7 356.3 363.3 314.7 379 308C394.7 301.3 410.3 329.7 426.2 328.7C442 327.7 458 297.3 473.8 292.5C489.7 287.7 505.3 308.3 521 329.7C536.7 351 552.3 373 568.2 372.7C584 372.3 600 349.7 615.8 348C631.7 346.3 647.3 365.7 663.2 360C679 354.3 695 323.7 710.8 303.8C726.7 284 742.3 275 758 280C773.7 285 789.3 304 805.2 324.5C821 345 837 367 852.8 356.7C868.7 346.3 884.3 303.7 892.2 282.3L900 261L900 601L892.2 601C884.3 601 868.7 601 852.8 601C837 601 821 601 805.2 601C789.3 601 773.7 601 758 601C742.3 601 726.7 601 710.8 601C695 601 679 601 663.2 601C647.3 601 631.7 601 615.8 601C600 601 584 601 568.2 601C552.3 601 536.7 601 521 601C505.3 601 489.7 601 473.8 601C458 601 442 601 426.2 601C410.3 601 394.7 601 379 601C363.3 601 347.7 601 331.8 601C316 601 300 601 284.2 601C268.3 601 252.7 601 236.8 601C221 601 205 601 189.2 601C173.3 601 157.7 601 142 601C126.3 601 110.7 601 94.8 601C79 601 63 601 47.2 601C31.3 601 15.7 601 7.8 601L0 601Z" fill="#e34c67"></path><path d="M0 337L7.8 341.8C15.7 346.7 31.3 356.3 47.2 374.3C63 392.3 79 418.7 94.8 431.3C110.7 444 126.3 443 142 426.8C157.7 410.7 173.3 379.3 189.2 371.3C205 363.3 221 378.7 236.8 395.5C252.7 412.3 268.3 430.7 284.2 420.5C300 410.3 316 371.7 331.8 371.8C347.7 372 363.3 411 379 425.8C394.7 440.7 410.3 431.3 426.2 427.7C442 424 458 426 473.8 423.2C489.7 420.3 505.3 412.7 521 403.8C536.7 395 552.3 385 568.2 386.3C584 387.7 600 400.3 615.8 415C631.7 429.7 647.3 446.3 663.2 441.8C679 437.3 695 411.7 710.8 409.7C726.7 407.7 742.3 429.3 758 426C773.7 422.7 789.3 394.3 805.2 394.3C821 394.3 837 422.7 852.8 422.8C868.7 423 884.3 395 892.2 381L900 367L900 601L892.2 601C884.3 601 868.7 601 852.8 601C837 601 821 601 805.2 601C789.3 601 773.7 601 758 601C742.3 601 726.7 601 710.8 601C695 601 679 601 663.2 601C647.3 601 631.7 601 615.8 601C600 601 584 601 568.2 601C552.3 601 536.7 601 521 601C505.3 601 489.7 601 473.8 601C458 601 442 601 426.2 601C410.3 601 394.7 601 379 601C363.3 601 347.7 601 331.8 601C316 601 300 601 284.2 601C268.3 601 252.7 601 236.8 601C221 601 205 601 189.2 601C173.3 601 157.7 601 142 601C126.3 601 110.7 601 94.8 601C79 601 63 601 47.2 601C31.3 601 15.7 601 7.8 601L0 601Z" fill="#da3f67"></path><path d="M0 516L7.8 511.5C15.7 507 31.3 498 47.2 489.2C63 480.3 79 471.7 94.8 457.3C110.7 443 126.3 423 142 426.2C157.7 429.3 173.3 455.7 189.2 472C205 488.3 221 494.7 236.8 483.8C252.7 473 268.3 445 284.2 439.7C300 434.3 316 451.7 331.8 465C347.7 478.3 363.3 487.7 379 492C394.7 496.3 410.3 495.7 426.2 498C442 500.3 458 505.7 473.8 499.8C489.7 494 505.3 477 521 465.3C536.7 453.7 552.3 447.3 568.2 440.7C584 434 600 427 615.8 431.8C631.7 436.7 647.3 453.3 663.2 466.2C679 479 695 488 710.8 493.5C726.7 499 742.3 501 758 497.7C773.7 494.3 789.3 485.7 805.2 469.7C821 453.7 837 430.3 852.8 431.3C868.7 432.3 884.3 457.7 892.2 470.3L900 483L900 601L892.2 601C884.3 601 868.7 601 852.8 601C837 601 821 601 805.2 601C789.3 601 773.7 601 758 601C742.3 601 726.7 601 710.8 601C695 601 679 601 663.2 601C647.3 601 631.7 601 615.8 601C600 601 584 601 568.2 601C552.3 601 536.7 601 521 601C505.3 601 489.7 601 473.8 601C458 601 442 601 426.2 601C410.3 601 394.7 601 379 601C363.3 601 347.7 601 331.8 601C316 601 300 601 284.2 601C268.3 601 252.7 601 236.8 601C221 601 205 601 189.2 601C173.3 601 157.7 601 142 601C126.3 601 110.7 601 94.8 601C79 601 63 601 47.2 601C31.3 601 15.7 601 7.8 601L0 601Z" fill="#d03267"></path><path d="M0 496L7.8 501.3C15.7 506.7 31.3 517.3 47.2 517.7C63 518 79 508 94.8 515.3C110.7 522.7 126.3 547.3 142 551C157.7 554.7 173.3 537.3 189.2 524.2C205 511 221 502 236.8 508.2C252.7 514.3 268.3 535.7 284.2 538.8C300 542 316 527 331.8 529.3C347.7 531.7 363.3 551.3 379 546.5C394.7 541.7 410.3 512.3 426.2 502.5C442 492.7 458 502.3 473.8 503.3C489.7 504.3 505.3 496.7 521 507C536.7 517.3 552.3 545.7 568.2 555C584 564.3 600 554.7 615.8 546.8C631.7 539 647.3 533 663.2 529.8C679 526.7 695 526.3 710.8 517.3C726.7 508.3 742.3 490.7 758 496.3C773.7 502 789.3 531 805.2 539.5C821 548 837 536 852.8 536.3C868.7 536.7 884.3 549.3 892.2 555.7L900 562L900 601L892.2 601C884.3 601 868.7 601 852.8 601C837 601 821 601 805.2 601C789.3 601 773.7 601 758 601C742.3 601 726.7 601 710.8 601C695 601 679 601 663.2 601C647.3 601 631.7 601 615.8 601C600 601 584 601 568.2 601C552.3 601 536.7 601 521 601C505.3 601 489.7 601 473.8 601C458 601 442 601 426.2 601C410.3 601 394.7 601 379 601C363.3 601 347.7 601 331.8 601C316 601 300 601 284.2 601C268.3 601 252.7 601 236.8 601C221 601 205 601 189.2 601C173.3 601 157.7 601 142 601C126.3 601 110.7 601 94.8 601C79 601 63 601 47.2 601C31.3 601 15.7 601 7.8 601L0 601Z" fill="#c62368"></path></svg>